<?xml version="1.0" encoding="UTF-8"?>
<svg id="Capa_2" data-name="Capa 2" xmlns="http://www.w3.org/2000/svg" viewBox="0 0 108.26 91.2">
  <defs>
    <style>
      .cls-1 {
        fill: #fff;
      }
    </style>
  </defs>
  <g id="texto">
    <g>
      <rect class="cls-1" x="29.85" y="50.68" width="19.89" height="40.52"/>
      <rect class="cls-1" x="59.01" y="59.29" width="20.43" height="31.91"/>
      <path class="cls-1" d="M42.56,30.5l20.99,6.33c1.17,5.12,7.9,6.55,11.22,2.5,1.43-1.75,1.35-3.44,1.52-5.56,7.52-6.2,14.49-13.83,22.03-19.91,2.37-1.91,4.5.03,7.35-2.27,8.08-6.52-4.86-17.12-9.72-8.1-1.02,1.9-.33,3.61-1.13,4.84l-23.19,20.69c-2.07-.51-4.5-.23-6.05,1.35l-21.23-6.12c-1.72-4.87-7.7-7.02-11.36-2.85-1.55,1.76-1.42,3.09-1.82,5.28l-22.43,20.02c-10.99-3.26-11.79,13.91-1.46,12.52,3.78-.51,5.57-4.04,5.79-7.54l22.45-19.93c2.68,1.12,4.7-.08,7.03-1.25Z"/>
      <rect class="cls-1" x="88.08" y="29.65" width="20.19" height="61.55"/>
    </g>
  </g>
</svg>