<?xml version="1.0" encoding="UTF-8"?>
<svg id="Capa_2" data-name="Capa 2" xmlns="http://www.w3.org/2000/svg" viewBox="0 0 106.21 103.84">
  <defs>
    <style>
      .cls-1 {
        fill: #fff;
      }
    </style>
  </defs>
  <g id="texto">
    <g>
      <path class="cls-1" d="M96.19,27.25c-.22.14-.72.94-.72,1.11v6.23h-10.74v-14.82c0-2.12-4.94-7.09-7.09-7.09h-16.54v-3.44s5.59,0,5.59,0V1.72c0-.1-.97-1.19-1.16-1.53l-31.93-.19c-.31.15-1.22,1.42-1.29,1.72-.43,2.03.31,5.32,0,7.52h5.59s0,3.44,0,3.44h-16.97c-.33,0-4.04,2.31-4.51,2.8-.96.99-2.58,4.29-2.58,5.58v27.28c3.36.74,5.4-2.39,8.48-2.91,5.23-.88,13.84-.2,14.73,6.34,4.16-1.17,6.43-1.24,9.88,1.5,4.66,3.71,7.86,8.3,5.15,14.39,1.15-.04,2.26.62,3.33.75,4.38.54,17.02.66,21.27,0,2.82-.44,8.05-3.89,8.05-6.99v-15.25h10.74v6.23c0,2.97,10.74,2.39,10.74.43v-24.92c-1.25-1.57-8.81-1.42-10.02-.68ZM30.9,22.22l36.45-.11c3.05.4,3.35,4.74-.44,5.18-10.87,1.27-24.13-.98-35.26.01-2.84-.34-3.29-3.86-.75-5.09ZM66.47,38.88c-6.64.69-14.61-.49-21.5-.45-4.04.03-8.71.94-12.88.46-3.27-.38-3.94-3.42-1.19-5.07l36.45-.11c3.04.4,3.56,4.72-.88,5.18Z"/>
      <path class="cls-1" d="M46.55,71.91c-.11-1.4-1.49-3-1.71-4.13-.49-2.47,4.2-3.37,2.08-6.33-.43-.61-4.63-4.75-5.04-4.87-2.68-.79-3.65,2.4-5.08,2.53l-4.85-2.24c.88-7.52-4.62-5.34-9.86-5.42-1.36,1.57-.65,3.41-1.35,5.2l-4.62,2.35c-1.45.09-3.1-3.49-5.72-2.28l-5.42,5.34c-.49,2.4,2.55,3.42,2.72,5.03l-1.66,4.83c-1.75.08-5.44-.16-5.86,2.06-.23,1.22-.32,6.96.11,7.87.94,1.97,4.25.82,5.38,1.5.23.14,2.03,3.61,2.08,3.98.27,1.9-4.25,3.03-2.29,6.1.98,1.54,5.18,5.81,7.05,4.97,3.03-1.35,1.74-3.98,6.17-1.42,4.17,2.42,1.11,3.66,3.61,6.8,2.53-.33,8.57,1.17,9.49-2.03.35-1.21-.33-2.69.48-3.81.61-.85,3.22-1.58,4.19-2.26,1.03-.09,2.95,3.27,4.97,2.88,1.13-.22,6.09-5.15,6.27-6.26.32-2.02-2.58-3.13-2.88-4.29-.19-.73,1.57-4.53,2.39-4.77,1.31-.38,4.62.29,5.21-1.67.32-1.05.22-7.59-.31-8.44-.82-1.3-4.19-1.14-5.56-1.2ZM33.81,86.57c-11.14,8.71-25.65-5.9-16.53-16.96,1.44-1.75,4.49-3.63,6.75-3.99,12.31-1.97,19.39,13.44,9.78,20.95Z"/>
    </g>
  </g>
</svg>