<?xml version="1.0" encoding="UTF-8"?>
<svg id="Capa_2" data-name="Capa 2" xmlns="http://www.w3.org/2000/svg" viewBox="0 0 108.55 98.45">
  <defs>
    <style>
      .cls-1 {
        fill: #fff;
      }
    </style>
  </defs>
  <g id="texto">
    <g>
      <path class="cls-1" d="M52.31,80.65c-1.6-.97-6.3.67-7.63-2.12-.59-1.25-.49-8.89-.19-10.96-14.64-2.06-25.73-20.14-13.68-34.76,2.57-3.12,8.01-6.46,12.04-7.11,14.19-2.28,24.46,8.4,25.33,19.86l5.51-2.81c.99-2.54-.02-5.16,1.91-7.39,2.36.04,4.76-.25,6.89-.31-.78-1.97-2.27-3.99-2.57-5.51-.87-4.4,7.49-6.01,3.71-11.29-.77-1.08-8.25-8.47-8.98-8.69-4.77-1.4-6.5,4.28-9.06,4.51l-8.64-3.99C58.52-3.33,48.72.56,39.38.41c-2.43,2.79-1.16,6.08-2.4,9.28l-8.23,4.2c-2.59.15-5.53-6.22-10.19-4.06l-9.65,9.51c-.88,4.28,4.55,6.09,4.85,8.97l-2.95,8.62c-3.11.15-9.7-.28-10.45,3.68-.41,2.17-.58,12.4.19,14.02,1.67,3.51,7.58,1.45,9.59,2.67.42.25,3.62,6.43,3.71,7.09.48,3.39-7.57,5.41-4.07,10.87,1.75,2.74,9.23,10.35,12.57,8.85,5.39-2.42,3.1-7.1,10.99-2.53,7.44,4.31,1.98,6.52,6.44,12.11,2.74-.35,7.76.48,11.67-.07-.85-3.38,4.17-4.92,3.83-7.32-.07-.53-2.62-5.44-2.96-5.65Z"/>
      <path class="cls-1" d="M108.04,66.94c-.84-1.34-4.29-1.17-5.7-1.24-.11-1.43-1.52-3.08-1.75-4.24-.5-2.53,4.31-3.46,2.14-6.49-.45-.62-4.75-4.88-5.17-5-2.75-.81-3.74,2.46-5.21,2.59l-4.97-2.3c.9-7.71-4.74-5.47-10.11-5.56-1.4,1.61-.67,3.5-1.38,5.34l-4.74,2.42c-1.49.09-3.18-3.58-5.86-2.34l-5.55,5.47c-.51,2.46,2.62,3.51,2.79,5.16l-1.7,4.96c-1.79.08-5.58-.16-6.02,2.12-.24,1.25-.33,7.13.11,8.07.96,2.02,4.36.84,5.52,1.54.24.15,2.08,3.7,2.14,4.08.28,1.95-4.36,3.11-2.34,6.25,1.01,1.58,5.31,5.95,7.23,5.09,3.1-1.39,1.79-4.08,6.33-1.45,4.28,2.48,1.14,3.75,3.7,6.97,2.59-.33,8.79,1.2,9.73-2.08.36-1.25-.34-2.76.5-3.91.63-.87,3.3-1.62,4.3-2.32,1.06-.09,3.03,3.36,5.1,2.95,1.16-.23,6.25-5.28,6.43-6.42.33-2.08-2.65-3.21-2.96-4.4-.19-.75,1.61-4.65,2.45-4.89,1.35-.39,4.73.3,5.34-1.71.33-1.08.22-7.79-.32-8.65ZM89.28,80.74c-11.43,8.93-26.31-6.05-16.95-17.39,1.48-1.8,4.61-3.72,6.92-4.09,12.62-2.03,19.88,13.78,10.03,21.48Z"/>
    </g>
  </g>
</svg>